<?xml version="1.0" encoding="utf-8"?>
<!-- Generator: Adobe Illustrator 23.0.1, SVG Export Plug-In . SVG Version: 6.00 Build 0)  -->
<svg version="1.1" id="Layer_1" xmlns="http://www.w3.org/2000/svg" xmlns:xlink="http://www.w3.org/1999/xlink" x="0px" y="0px"
	 viewBox="0 0 292.7 68.7" style="enable-background:new 0 0 292.7 68.7;" xml:space="preserve">
<style type="text/css">
	.st0{fill:#005FBD;}
	.st1{fill:#21AA00;}
	.st2{fill:none;stroke:#005FBD;}
	.st3{fill:#545454;}
</style>
<g>
	<g>
		<path class="st0" d="M78.3,11.7H83c5,0,6,2.8,6,6.9v9.1c0,3.6-0.6,7.4-6,7.4h-4.6V11.7z M81.4,32.4h1.3c2.6,0,3.1-1.6,3.1-4.2
			v-9.8c0-2.4-0.4-3.9-3.1-3.9h-1.3V32.4z"/>
		<path class="st0" d="M102.1,17.7V29c0,4.3-1.8,6.4-5.6,6.4c-3.7,0-5.3-2.2-5.3-6.4V17.7c0-4.3,2.1-6.3,5.5-6.3
			C100.3,11.4,102.1,13.6,102.1,17.7z M94.5,17.5v11.9c0,2.2,0.8,3.2,2.2,3.2c1.5,0,2.2-0.9,2.2-3.3V17.5c0-2.1-0.7-3.2-2.2-3.2
			C95.2,14.3,94.5,15.3,94.5,17.5z"/>
		<path class="st0" d="M116.7,26c0-4.1,0.1-8.9,0.1-11.5h0c-0.6,4-2.1,13.8-3.2,20.6h-3c-0.8-6-2.4-16.4-2.9-20.7h-0.1
			c0.1,2.7,0.2,8,0.2,12v8.6h-2.9V11.7h4.7c1.1,6.3,2.3,13.8,2.6,16.9h0c0.4-3.1,1.9-11,2.9-16.9h4.5v23.4h-3V26z"/>
		<path class="st0" d="M126.1,11.7v23.4h-3.1V11.7H126.1z"/>
		<path class="st0" d="M129.4,35.1V11.7h3.7c1.1,3.7,4.1,15.6,4.4,17.1h0c-0.2-3-0.2-6.3-0.2-10.1v-7h2.9v23.4h-3.5
			c-0.9-3.5-4.2-16.3-4.5-17.6h0c0.2,2.8,0.2,6.2,0.2,10.4v7.2H129.4z"/>
		<path class="st0" d="M146.6,11.7v23.4h-3.1V11.7H146.6z"/>
		<path class="st0" d="M159.5,28.2v0.9c0,2.8-0.5,6.3-5.1,6.3c-4.2,0-5-2.8-5-6.3V17.3c0-3.7,1.6-5.9,5.1-5.9c4.2,0,5,2.9,5,6v1
			h-3.2v-1.3c0-1.7-0.3-2.8-1.8-2.8c-1.4,0-1.9,1.1-1.9,2.9v12.3c0,1.9,0.4,3.2,1.9,3.2c1.5,0,1.9-1.3,1.9-3.2v-1.2H159.5z"/>
		<path class="st0" d="M164.9,28.3l-0.9,6.8h-3.2l3.8-23.4h4.4l3.9,23.4h-3.3l-1-6.8H164.9z M168.3,25.5c-0.7-4.5-1.2-8.3-1.4-10.8
			h-0.1c-0.1,1.9-0.9,7-1.4,10.8H168.3z"/>
		<path class="st0" d="M174.8,35.1V11.7h3.7c1.1,3.7,4.1,15.6,4.4,17.1h0c-0.2-3-0.2-6.3-0.2-10.1v-7h2.9v23.4h-3.5
			c-1-3.5-4.2-16.3-4.5-17.6h0c0.2,2.8,0.2,6.2,0.2,10.4v7.2H174.8z"/>
	</g>
	<g>
		<path class="st1" d="M195.2,28.3v1.4c0,1.9,0.6,3,2.1,3c1.5,0,2-1.3,2-3.2c0-2.6-0.6-3.5-3.1-5.5c-2.5-2-3.8-3.2-3.8-6.7
			c0-3,0.9-6,4.9-6c4,0,4.7,2.8,4.7,5.5V18H199v-1.1c0-1.8-0.3-2.9-1.7-2.9c-1.4,0-1.7,1.2-1.7,2.8c0,1.9,0.4,2.7,2.5,4.2
			c3.4,2.5,4.4,4,4.4,7.9c0,3.3-1.1,6.4-5.2,6.4c-4.1,0-5.1-2.6-5.1-5.7v-1.4H195.2z"/>
		<path class="st1" d="M204.8,11.7h3.1v9.4h4.3v-9.4h3.1v23.4h-3.1V24H208v11.1h-3.1V11.7z"/>
		<path class="st1" d="M221.7,11.7v17.9c0,1.8,0.6,2.9,2.2,2.9c1.6,0,2.1-1.2,2.1-2.9V11.7h3.1v17.9c0,3.7-1.6,5.8-5.3,5.8
			c-3.5,0-5.2-1.9-5.2-5.8V11.7H221.7z"/>
		<path class="st1" d="M234.5,14.6h-3.8v-2.9h10.7v2.9h-3.8v20.4h-3.1V14.6z"/>
		<path class="st1" d="M246.1,14.6h-3.8v-2.9H253v2.9h-3.8v20.4h-3.1V14.6z"/>
		<path class="st1" d="M254.6,11.7h3.1v20.5h5.9l-0.3,2.8h-8.7V11.7z"/>
		<path class="st1" d="M273.4,24.1h-5.2v8.1h5.9l-0.4,2.9h-8.7V11.7h8.6v2.9h-5.5v6.6h5.2V24.1z"/>
		<path class="st1" d="M278.7,28.3v1.4c0,1.9,0.6,3,2.1,3c1.5,0,2-1.3,2-3.2c0-2.6-0.6-3.5-3.1-5.5c-2.5-2-3.8-3.2-3.8-6.7
			c0-3,0.9-6,4.9-6c4,0,4.7,2.8,4.7,5.5V18h-3.1v-1.1c0-1.8-0.3-2.9-1.7-2.9c-1.4,0-1.7,1.2-1.7,2.8c0,1.9,0.4,2.7,2.5,4.2
			c3.4,2.5,4.4,4,4.4,7.9c0,3.3-1.1,6.4-5.2,6.4c-4.1,0-5.1-2.6-5.1-5.7v-1.4H278.7z"/>
	</g>
</g>
<line class="st2" x1="76.1" y1="39.6" x2="288.1" y2="39.6"/>
<g>
	<path class="st3" d="M80.2,42.9h2c2.9,0,2.9,2.1,2.9,3.8v5.4c0,2-0.3,4-3.1,4h-1.8V42.9z M81,55.4h0.9c1.9,0,2.4-0.9,2.4-3v-5.8
		c0-1.8-0.3-2.9-2.4-2.9h-1V55.4z"/>
	<path class="st3" d="M93.5,48.7v4.5c0,2.2-1,3-2.3,3c-1.3,0-2.2-0.8-2.2-2.9v-4.6c0-1.7,0.8-2.7,2.3-2.7
		C92.8,46,93.5,47.1,93.5,48.7z M89.8,48.8v4.6c0,1.4,0.5,2.2,1.5,2.2c0.9,0,1.5-0.6,1.5-2.2v-4.6c0-1.2-0.5-2.1-1.5-2.1
		C90.2,46.7,89.8,47.5,89.8,48.8z"/>
	<path class="st3" d="M97.5,49c0-1.6,0-2.3,0-2.8h0.7c0,0.3,0,0.7,0,1c0.2-0.7,0.7-1.1,1.6-1.1c0.7,0,1.3,0.3,1.5,1.2
		c0.3-0.7,0.8-1.2,1.7-1.2c0.9,0,1.8,0.3,1.8,2.2v7.9h-0.8v-7.7c0-0.9-0.1-1.7-1.1-1.7c-1.2,0-1.4,1.1-1.4,2.3v7h-0.8v-7.5
		c0-1.2-0.3-1.8-1.2-1.8c-1.1,0-1.4,1.2-1.4,2.5v6.8h-0.8V49z"/>
	<path class="st3" d="M109.6,51.2V53c0,1.2,0.2,2.6,1.4,2.6c1.1,0,1.4-0.8,1.4-2v-0.1h0.8v0.1c0,1.3-0.3,2.7-2.2,2.7
		c-1.6,0-2.2-1.1-2.2-3.2v-4.2c0-1.7,0.6-2.9,2.2-2.9c1.7,0,2.1,1.4,2.1,2.9c0,0.5,0,1.7,0,2.2H109.6z M112.4,50.5V49
		c0-0.9-0.1-2.3-1.4-2.3c-1.3,0-1.4,1.1-1.4,2.3v1.5H112.4z"/>
	<path class="st3" d="M117.5,53.3v0.4c0,1.3,0.6,1.8,1.4,1.8c1,0,1.4-0.6,1.4-1.8c0-1.3-0.4-1.8-1.4-2.5c-1.3-0.9-1.9-1.5-1.9-2.9
		c0-1.2,0.5-2.4,2-2.4c1.6,0,2,1.2,2,2.3v0.5h-0.8v-0.5c0-1-0.3-1.7-1.2-1.7c-0.8,0-1.2,0.6-1.2,1.6c0,1,0.3,1.4,1.4,2.2
		c1.2,0.8,1.9,1.5,1.9,3.1c0,1.7-0.7,2.6-2.2,2.6c-1.6,0-2.1-1.2-2.1-2.5v-0.5H117.5z"/>
	<path class="st3" d="M123.9,46.2h1.2v-2.5h0.7v2.5h1.6v0.7h-1.6v7.5c0,0.6,0.1,1.2,0.8,1.2c0.2,0,0.5,0,0.7-0.1v0.6
		c-0.3,0.1-0.6,0.1-0.9,0.1c-0.7,0-1.3-0.4-1.3-1.7v-7.6h-1.2V46.2z"/>
	<path class="st3" d="M130.8,46.2h0.8v9.9h-0.8V46.2z M130.8,42.3h0.8v1.9h-0.8V42.3z"/>
	<path class="st3" d="M139.9,53.1v0.1c0,1.6-0.4,3-2.2,3c-1.6,0-2.1-1.1-2.1-3.1v-4.3c0-1.7,0.7-2.8,2.2-2.8c1.6,0,2.1,1.2,2.1,2.6
		v0.4h-0.8v-0.3c0-1-0.2-2.1-1.3-2.1c-1,0-1.4,0.7-1.4,2.2v4.2c0,1.1,0.2,2.4,1.3,2.4c0.9,0,1.4-0.6,1.4-2.3v-0.1H139.9z"/>
	<path class="st3" d="M148.8,42.9h0.8v12.5h3.3l-0.1,0.7h-3.9V42.9z"/>
	<path class="st3" d="M160.4,54.7c0,0.7,0,1.2,0,1.4h-0.7c-0.1-0.3-0.1-0.7-0.1-0.9c-0.3,0.9-1,1-1.6,1c-1.4,0-1.9-1.2-1.9-2.7v-0.2
		c0-2,1.1-3,2.9-3c0.2,0,0.4,0,0.6,0v-1.9c0-1-0.2-1.7-1.2-1.7c-1,0-1.3,0.7-1.3,1.7v0.4h-0.8v-0.4c0-1.3,0.5-2.4,2-2.4
		c1.5,0,1.9,1.1,1.9,2.4V54.7z M159.6,51.1c-0.2,0-0.5,0-0.6,0c-1.4,0-2.1,0.6-2.1,2.2v0.2c0,1.1,0.3,2,1.2,2c1.2,0,1.5-1,1.5-2.7
		V51.1z"/>
	<path class="st3" d="M164.7,49.1c0-2,0-2.4,0-3h0.7c0,0.2,0,0.5,0,1.1c0.3-0.9,0.9-1.2,1.8-1.2c1,0,1.9,0.5,1.9,2.3v7.8h-0.8v-7.6
		c0-1-0.3-1.7-1.2-1.7c-1,0-1.6,0.5-1.6,2.9v6.4h-0.8V49.1z"/>
	<path class="st3" d="M177.6,42.3v11.5c0,0.8,0,1.8,0,2.3h-0.7c0-0.1,0-0.7,0-1c-0.2,0.6-0.6,1.2-1.7,1.2c-1.5,0-2-1.2-2-3.1v-4.2
		c0-1.8,0.7-2.9,2.2-2.9c1,0,1.4,0.5,1.5,0.8v-4.5H177.6z M173.9,48.9v4.1c0,1.6,0.4,2.4,1.3,2.4c1.3,0,1.6-1.3,1.6-2.9v-3.5
		c0-1.1-0.1-2.4-1.6-2.4C174.3,46.8,173.9,47.6,173.9,48.9z"/>
	<path class="st3" d="M193.3,48l-1.9,5.5c-0.6,1.8-1.4,2.7-2.6,2.7c-1.8,0-2.2-1.5-2.2-3.3c0-2.1,0.7-3,2.1-4.3
		c1.2-1.1,1.4-1.8,1.4-3.3c0-1.1-0.2-1.9-1.1-1.9c-0.8,0-1.1,0.8-1.1,2c0,1.5,0.1,1.9,0.8,3.3l4.1,7.4h-0.9l-3.8-6.9
		c-0.8-1.4-1-2.3-1-3.9c0-1.5,0.5-2.7,1.9-2.7c1.4,0,1.8,1,1.8,2.5c0,2-0.5,2.8-1.9,4.1c-1.3,1.2-1.6,2-1.6,3.6
		c0,1.7,0.5,2.6,1.5,2.6c0.8,0,1.3-0.5,1.8-2.1l1.8-5.4H193.3z"/>
	<path class="st3" d="M202.8,51.2l-0.8,4.9h-0.8l2.2-13.2h1.1l2.3,13.2H206l-0.8-4.9H202.8z M205.1,50.5c-0.6-3.6-1-6-1.1-7h0
		c0,1-0.6,4.1-1,7H205.1z"/>
	<path class="st3" d="M210.6,42.3h0.8v1.9h-0.8V42.3z M210.6,46.2h0.8v9.9h-0.8V46.2z"/>
	<path class="st3" d="M215.6,49.6c0-1.5,0-2.6,0-3.4h0.7c0,0.3,0,0.7,0,1.5c0.3-1.1,1.2-1.6,2-1.6V47c-1.3,0-2,1.2-2,2.7v6.4h-0.8
		V49.6z"/>
	<path class="st3" d="M226.9,52.5v0.7c0,1.5,0.6,2.3,1.6,2.3c1.1,0,1.6-0.6,1.6-2.7c0-1.7-0.4-2.4-1.7-3.5c-1.4-1.1-2.1-1.7-2.1-3.6
		c0-1.6,0.5-3.1,2.2-3c1.5,0,2.2,0.9,2.2,2.8V46H230v-0.5c0-1.3-0.3-2.1-1.4-2.1c-1.2,0-1.5,1-1.5,2.2c0,1.5,0.3,2,1.6,3
		c1.7,1.3,2.2,2,2.2,4.2c0,1.8-0.4,3.4-2.4,3.4c-1.8,0-2.4-1.2-2.4-3v-0.7H226.9z"/>
	<path class="st3" d="M235.6,51.2V53c0,1.2,0.2,2.6,1.4,2.6c1.1,0,1.4-0.8,1.4-2v-0.1h0.8v0.1c0,1.3-0.3,2.7-2.2,2.7
		c-1.6,0-2.2-1.1-2.2-3.2v-4.2c0-1.7,0.6-2.9,2.2-2.9c1.7,0,2.1,1.4,2.1,2.9c0,0.5,0,1.7,0,2.2H235.6z M238.4,50.5V49
		c0-0.9-0.1-2.3-1.4-2.3c-1.3,0-1.4,1.1-1.4,2.3v1.5H238.4z"/>
	<path class="st3" d="M243,49.6c0-1.5,0-2.6,0-3.4h0.7c0,0.3,0,0.7,0,1.5c0.3-1.1,1.2-1.6,2-1.6V47c-1.3,0-2,1.2-2,2.7v6.4H243V49.6
		z"/>
	<path class="st3" d="M249.7,46.2c0.3,1.4,1.5,7.4,1.7,9h0c0.1-1.3,1.5-7.4,1.7-9h0.8l-2.1,9.9h-0.9l-2-9.9H249.7z"/>
	<path class="st3" d="M257.5,42.3h0.8v1.9h-0.8V42.3z M257.5,46.2h0.8v9.9h-0.8V46.2z"/>
	<path class="st3" d="M266.5,53.1v0.1c0,1.6-0.4,3-2.2,3c-1.6,0-2.1-1.1-2.1-3.1v-4.3c0-1.7,0.7-2.8,2.2-2.8c1.6,0,2.1,1.2,2.1,2.6
		v0.4h-0.8v-0.3c0-1-0.2-2.1-1.3-2.1c-1,0-1.4,0.7-1.4,2.2v4.2c0,1.1,0.2,2.4,1.3,2.4c0.9,0,1.4-0.6,1.4-2.3v-0.1H266.5z"/>
	<path class="st3" d="M270.9,51.2V53c0,1.2,0.2,2.6,1.4,2.6c1.1,0,1.4-0.8,1.4-2v-0.1h0.8v0.1c0,1.3-0.3,2.7-2.2,2.7
		c-1.6,0-2.2-1.1-2.2-3.2v-4.2c0-1.7,0.6-2.9,2.2-2.9c1.7,0,2.1,1.4,2.1,2.9c0,0.5,0,1.7,0,2.2H270.9z M273.7,50.5V49
		c0-0.9-0.1-2.3-1.4-2.3c-1.3,0-1.4,1.1-1.4,2.3v1.5H273.7z"/>
	<path class="st3" d="M278.7,53.3v0.4c0,1.3,0.6,1.8,1.4,1.8c1,0,1.4-0.6,1.4-1.8c0-1.3-0.4-1.8-1.4-2.5c-1.3-0.9-1.9-1.5-1.9-2.9
		c0-1.2,0.5-2.4,2-2.4c1.6,0,2,1.2,2,2.3v0.5h-0.8v-0.5c0-1-0.3-1.7-1.2-1.7c-0.8,0-1.2,0.6-1.2,1.6c0,1,0.3,1.4,1.4,2.2
		c1.2,0.8,1.9,1.5,1.9,3.1c0,1.7-0.7,2.6-2.2,2.6c-1.6,0-2.1-1.2-2.1-2.5v-0.5H278.7z"/>
</g>
<polygon class="st1" points="4.5,56.2 46.4,21.4 10.5,11.7 74.4,11.7 56.7,50.1 59,25 14.9,56.2 "/>
</svg>
