<?xml version="1.0" encoding="utf-8"?>
<!-- Generator: Adobe Illustrator 26.1.0, SVG Export Plug-In . SVG Version: 6.00 Build 0)  -->
<svg version="1.1" id="Capa_1" xmlns="http://www.w3.org/2000/svg" xmlns:xlink="http://www.w3.org/1999/xlink" x="0px" y="0px"
	 viewBox="0 0 241.9 50" style="enable-background:new 0 0 241.9 50;" xml:space="preserve">
<style type="text/css">
	.st0{fill:#007BFF;}
	.st1{fill:#22C55E;}
	.st2{fill:#FFFFFF;}
</style>
<g>
	<path class="st0" d="M24.2,36.8c0,0.7-0.2,0.8-0.9,0.9c-1.3,0.4-5.2,0.6-7.6,0.6c-5.8,0-10.3-1.5-10.3-9.2V5.7
		c0-0.5,0.4-0.9,0.9-0.9h4.4c0.5,0,0.9,0.4,0.9,0.9v23.5c0,3,0.8,3.8,3.5,3.8h8.2c0.5,0,0.9,0.4,0.9,0.9
		C24.2,33.9,24.2,36.8,24.2,36.8z"/>
	<path class="st0" d="M48.6,37.1c0,0.5-0.4,0.9-0.9,0.9h-4.1c-0.5,0-0.9-0.4-0.9-0.9v-1c-2.3,1.6-4.2,2.2-7,2.2
		c-2.3,0-4.2-0.6-5.5-1.9C28.5,34.8,28,32,28,28.3V13.7c0-0.5,0.4-0.9,0.9-0.9H33c0.5,0,0.9,0.4,0.9,0.9v14.6c0,2.3,0.2,3.5,1,4.3
		c0.7,0.5,1.4,0.8,2.8,0.8c1.7,0,3.8-1.1,5-1.8V13.7c0-0.5,0.4-0.9,0.9-0.9h4.1c0.5,0,0.9,0.4,0.9,0.9
		C48.6,13.7,48.6,37.1,48.6,37.1z"/>
	<path class="st0" d="M75,26.3c0,0.8-0.3,1.1-0.9,1.1H59.5v0.1c0,2.6,1.1,5.7,5.4,5.7c3.3,0,6.3-0.3,8.2-0.4h0.1
		c0.5,0,0.8,0.2,0.8,0.7v2.9c0,0.7-0.1,1-0.9,1.2c-2.9,0.5-4.6,0.8-8.7,0.8c-4.4,0-10.8-2.4-10.8-11.2v-3.3c0-7,3.9-11.3,10.7-11.3
		c6.9,0,10.6,4.7,10.6,11.3L75,26.3L75,26.3z M69,23.1c0-3.5-1.9-5.5-4.7-5.5s-4.8,1.9-4.8,5.5v0.2H69V23.1z"/>
	<path class="st0" d="M93.9,7.2c0,0.5-0.4,0.8-0.7,0.8h-2c-2.1,0-2.6,0.5-2.6,2.7v2.2h4.3c0.5,0,0.9,0.4,0.9,0.9v2.7
		c0,0.5-0.4,0.8-0.9,0.8h-4.3V37c0,0.5-0.4,0.9-0.9,0.9h-4.1c-0.5,0-0.9-0.4-0.9-0.9V17.2l-4-0.6c-0.5-0.1-0.9-0.4-0.9-0.8v-2.1
		c0-0.5,0.4-0.9,0.9-0.9h4v-2.2c0-5.7,3.1-7.1,7.7-7.1c1.1,0,1.8,0.2,2.7,0.4c0.4,0.1,0.8,0.3,0.8,0.7V7.2z"/>
	<path class="st0" d="M111.7,37.2c0,0.4-0.3,0.7-0.8,0.8c-1.1,0.2-2,0.3-3,0.3c-5,0-7.1-1.2-7.1-7.1v-14l-4.2-0.6
		c-0.5-0.1-0.9-0.4-0.9-0.9v-2c0-0.5,0.4-0.9,0.9-0.9h4.2V9.1c0-0.5,0.4-0.8,0.9-0.9l4.2-0.7h0.2c0.5,0,0.7,0.2,0.7,0.7v4.6h4
		c0.5,0,0.9,0.4,0.9,0.9v2.6c0,0.5-0.4,0.9-0.9,0.9h-4v14c0,2.3,0.1,2.5,1.7,2.5h2.4c0.6,0,0.9,0.2,0.9,0.7L111.7,37.2L111.7,37.2z"
		/>
	<path class="st0" d="M136.7,13.8l-7.5,26.1c-1.4,4.9-3,7-9.1,7c-1.4,0-3.7-0.2-4.7-0.6c-0.5-0.1-0.9-0.3-0.9-0.8v-2.9
		c0-0.5,0.4-0.8,0.9-0.8h0.1c1.3,0,3.8,0.3,5,0.3c1.9,0,2.9-0.5,3.5-2.9l0.4-1.3h-0.7c-1.3,0-2.9-0.3-3.9-3.7L114,13.8
		c0-0.1,0-0.2,0-0.3c0-0.5,0.3-0.7,0.8-0.7h4.5c0.4,0,0.7,0.4,0.8,0.8l4.5,18.2c0.2,0.8,0.3,1,0.6,1l0,0h0.2h0.1l4.8-19.2
		c0.1-0.4,0.4-0.8,0.9-0.8h4.6c0.5,0,0.8,0.4,0.8,0.8C136.8,13.7,136.8,13.8,136.7,13.8z"/>
</g>
<path class="st1" d="M232.1,39.4h-86.6c-1.7,0-3.1-1.4-3.1-3.1v-22c0-1.7,1.4-3.1,3.1-3.1h86.6c1.7,0,3.1,1.4,3.1,3.1v22
	C235.2,38,233.8,39.4,232.1,39.4z"/>
<g>
	<path class="st2" d="M149.6,31.6c-1.2-1.1-1.8-2.5-1.8-4.1h1.2c0,1.3,0.5,2.4,1.5,3.4c1,0.9,2.1,1.4,3.5,1.4c1.5,0,2.8-0.4,3.8-1.2
		c1.1-0.8,1.6-1.8,1.6-2.9c0-1-0.5-1.8-1.4-2.4c-0.9-0.7-2.1-1.1-3.7-1.2c-1.9-0.2-3.4-0.7-4.5-1.6c-1.1-0.9-1.7-2-1.7-3.4
		c0-1.3,0.6-2.4,1.7-3.4c1.2-0.9,2.5-1.4,4.2-1.4c1.7,0,3.2,0.5,4.5,1.5c1.2,1,1.8,2.1,1.8,3.5h-1.2c0-1.1-0.5-2-1.5-2.7
		c-1-0.8-2.2-1.1-3.6-1.1c-1.3,0-2.4,0.4-3.3,1.1c-0.9,0.7-1.4,1.6-1.4,2.6c0,1,0.5,1.8,1.4,2.5c1,0.7,2.3,1.1,3.8,1.2
		c1.8,0.2,3.3,0.7,4.4,1.6c1.1,0.9,1.6,2,1.6,3.3c0,1.4-0.6,2.7-1.9,3.7s-2.9,1.5-4.7,1.5C152.3,33.3,150.8,32.8,149.6,31.6z"/>
	<path class="st2" d="M164.4,32.1c-0.9-0.8-1.3-1.7-1.3-2.8v-9.1h1.2v9.1c0,0.8,0.3,1.5,0.9,2.1c0.6,0.6,1.4,0.9,2.2,0.9
		c1,0,2-0.4,2.8-1.2c0.8-0.8,1.3-1.8,1.6-3v-7.8h1.2v12.7h-1.2v-2.2c-0.4,0.8-0.9,1.4-1.7,1.9c-0.8,0.5-1.6,0.7-2.6,0.7
		C166.2,33.2,165.2,32.8,164.4,32.1z"/>
	<path class="st2" d="M176.8,37.7V20.2h1.2v2.6c0.3-0.9,0.9-1.7,1.7-2.2c0.8-0.6,1.7-0.8,2.6-0.8c1.7,0,3.1,0.6,4.1,1.8
		c1,1.3,1.6,2.9,1.6,4.9c0,2-0.5,3.6-1.5,4.8c-1,1.2-2.3,1.8-3.9,1.8c-1,0-1.9-0.3-2.7-0.8c-0.8-0.5-1.4-1.2-1.8-2.1v7.5H176.8z
		 M185.5,30.7c0.8-1.1,1.2-2.5,1.2-4.2c0-1.7-0.4-3.1-1.2-4.2c-0.8-1.1-1.8-1.6-3.1-1.6c-1.2,0-2.3,0.6-3.1,1.7
		c-0.9,1.1-1.3,2.5-1.3,4.1c0,1.6,0.4,3,1.3,4.1c0.9,1.1,1.9,1.7,3.1,1.7C183.7,32.2,184.8,31.7,185.5,30.7z"/>
	<path class="st2" d="M191,37.7V20.2h1.2v2.6c0.3-0.9,0.9-1.7,1.7-2.2c0.8-0.6,1.7-0.8,2.6-0.8c1.7,0,3.1,0.6,4.1,1.8
		c1,1.3,1.6,2.9,1.6,4.9c0,2-0.5,3.6-1.5,4.8c-1,1.2-2.3,1.8-3.9,1.8c-1,0-1.9-0.3-2.7-0.8c-0.8-0.5-1.4-1.2-1.8-2.1v7.5H191z
		 M199.7,30.7c0.8-1.1,1.2-2.5,1.2-4.2c0-1.7-0.4-3.1-1.2-4.2c-0.8-1.1-1.8-1.6-3.1-1.6c-1.2,0-2.3,0.6-3.1,1.7
		c-0.9,1.1-1.3,2.5-1.3,4.1c0,1.6,0.4,3,1.3,4.1c0.9,1.1,1.9,1.7,3.1,1.7C197.9,32.2,199,31.7,199.7,30.7z"/>
	<path class="st2" d="M206,31.3c-1.1-1.2-1.6-2.8-1.6-4.8c0-2,0.5-3.7,1.6-4.9c1.1-1.2,2.5-1.8,4.3-1.8c1.8,0,3.2,0.6,4.3,1.8
		c1.1,1.3,1.6,2.9,1.6,4.9c0,2-0.5,3.6-1.6,4.8c-1.1,1.2-2.5,1.8-4.3,1.8C208.5,33.1,207.1,32.5,206,31.3z M213.8,30.6
		c0.9-1,1.3-2.4,1.3-4.1c0-1.7-0.4-3.1-1.3-4.2c-0.9-1.1-2-1.6-3.5-1.6c-1.5,0-2.6,0.5-3.5,1.6c-0.9,1-1.3,2.4-1.3,4.2
		c0,1.7,0.4,3,1.3,4.1c0.9,1,2,1.5,3.5,1.5C211.7,32.1,212.9,31.6,213.8,30.6z"/>
	<path class="st2" d="M219.3,32.9V20.2h1.2v2.9c0.3-0.9,0.8-1.7,1.5-2.2c0.7-0.6,1.4-0.8,2.1-0.8h0.7v1.4c-0.1,0-0.1,0-0.2-0.1
		c-0.1,0-0.1-0.1-0.1-0.1c-0.9,0-1.8,0.4-2.5,1.2c-0.8,0.8-1.2,1.8-1.5,3v7.5H219.3z"/>
	<path class="st2" d="M227.7,32.5c-0.5-0.5-0.7-1.2-0.7-1.9v-9.5h-1.8v-0.9h1.8v-3.6h1.2v3.6h1.7v0.9h-1.7v9.5
		c0,0.5,0.1,0.9,0.4,1.3c0.2,0.4,0.5,0.5,0.9,0.5c0.4,0,0.7-0.1,0.9-0.2v0.9c-0.4,0.2-0.8,0.2-1,0.2
		C228.7,33.3,228.1,33.1,227.7,32.5z"/>
</g>
</svg>
