<?xml version="1.0" encoding="utf-8"?>
<!-- Generator: Adobe Illustrator 23.0.1, SVG Export Plug-In . SVG Version: 6.00 Build 0)  -->
<svg version="1.1" id="Capa_1" xmlns="http://www.w3.org/2000/svg" xmlns:xlink="http://www.w3.org/1999/xlink" x="0px" y="0px"
	 viewBox="0 0 141.7 50" style="enable-background:new 0 0 141.7 50;" xml:space="preserve">
<style type="text/css">
	.st0{fill:#007BFF;}
</style>
<g>
	<path class="st0" d="M24.2,36.8c0,0.7-0.2,0.8-0.9,0.9c-1.3,0.4-5.2,0.6-7.6,0.6c-5.8,0-10.3-1.5-10.3-9.2V5.7
		c0-0.5,0.4-0.9,0.9-0.9h4.4c0.5,0,0.9,0.4,0.9,0.9v23.5c0,3,0.8,3.8,3.5,3.8h8.2c0.5,0,0.9,0.4,0.9,0.9V36.8z"/>
	<path class="st0" d="M48.6,37.1c0,0.5-0.4,0.9-0.9,0.9h-4.1c-0.5,0-0.9-0.4-0.9-0.9v-1c-2.3,1.6-4.2,2.2-7,2.2
		c-2.3,0-4.2-0.6-5.5-1.9C28.5,34.8,28,32,28,28.3V13.7c0-0.5,0.4-0.9,0.9-0.9H33c0.5,0,0.9,0.4,0.9,0.9v14.6c0,2.3,0.2,3.5,1,4.3
		c0.7,0.5,1.4,0.8,2.8,0.8c1.7,0,3.8-1.1,5-1.8V13.7c0-0.5,0.4-0.9,0.9-0.9h4.1c0.5,0,0.9,0.4,0.9,0.9V37.1z"/>
	<path class="st0" d="M75,26.3c0,0.8-0.3,1.1-0.9,1.1H59.5v0.1c0,2.6,1.1,5.7,5.4,5.7c3.3,0,6.3-0.3,8.2-0.4h0.1
		c0.5,0,0.8,0.2,0.8,0.7v2.9c0,0.7-0.1,1-0.9,1.2c-2.9,0.5-4.6,0.8-8.7,0.8c-4.4,0-10.8-2.4-10.8-11.2v-3.3c0-7,3.9-11.3,10.7-11.3
		c6.9,0,10.6,4.7,10.6,11.3V26.3z M69,23.1c0-3.5-1.9-5.5-4.7-5.5s-4.8,1.9-4.8,5.5v0.2H69V23.1z"/>
	<path class="st0" d="M93.9,7.2c0,0.5-0.4,0.8-0.7,0.8h-2c-2.1,0-2.6,0.5-2.6,2.7v2.2h4.3c0.5,0,0.9,0.4,0.9,0.9v2.7
		c0,0.5-0.4,0.8-0.9,0.8h-4.3V37c0,0.5-0.4,0.9-0.9,0.9h-4.1c-0.5,0-0.9-0.4-0.9-0.9V17.2l-4-0.6c-0.5-0.1-0.9-0.4-0.9-0.8v-2.1
		c0-0.5,0.4-0.9,0.9-0.9h4v-2.2c0-5.7,3.1-7.1,7.7-7.1c1.1,0,1.8,0.2,2.7,0.4c0.4,0.1,0.8,0.3,0.8,0.7V7.2z"/>
	<path class="st0" d="M111.7,37.2c0,0.4-0.3,0.7-0.8,0.8c-1.1,0.2-2,0.3-3,0.3c-5,0-7.1-1.2-7.1-7.1v-14l-4.2-0.6
		c-0.5-0.1-0.9-0.4-0.9-0.9v-2c0-0.5,0.4-0.9,0.9-0.9h4.2V9.1c0-0.5,0.4-0.8,0.9-0.9l4.2-0.7h0.2c0.5,0,0.7,0.2,0.7,0.7v4.6h4
		c0.5,0,0.9,0.4,0.9,0.9v2.6c0,0.5-0.4,0.9-0.9,0.9h-4v14c0,2.3,0.1,2.5,1.7,2.5h2.4c0.6,0,0.9,0.2,0.9,0.7V37.2z"/>
	<path class="st0" d="M136.7,13.8l-7.5,26.1c-1.4,4.9-3,7-9.1,7c-1.4,0-3.7-0.2-4.7-0.6c-0.5-0.1-0.9-0.3-0.9-0.8v-2.9
		c0-0.5,0.4-0.8,0.9-0.8h0.1c1.3,0,3.8,0.3,5,0.3c1.9,0,2.9-0.5,3.5-2.9l0.4-1.3h-0.7c-1.3,0-2.9-0.3-3.9-3.7L114,13.8
		c0-0.1,0-0.2,0-0.3c0-0.5,0.3-0.7,0.8-0.7h4.5c0.4,0,0.7,0.4,0.8,0.8l4.5,18.2c0.2,0.8,0.3,1,0.6,1h0h0.2h0.1l4.8-19.2
		c0.1-0.4,0.4-0.8,0.9-0.8h4.6c0.5,0,0.8,0.4,0.8,0.8C136.8,13.7,136.8,13.8,136.7,13.8z"/>
</g>
</svg>
